<?xml version="1.0" encoding="utf-8"?>
<!-- Generator: Adobe Illustrator 18.1.1, SVG Export Plug-In . SVG Version: 6.00 Build 0)  -->
<svg version="1.1" id="Capa_1" xmlns="http://www.w3.org/2000/svg" xmlns:xlink="http://www.w3.org/1999/xlink" x="0px" y="0px"
	 viewBox="-275 398.7 44.2 44.2" enable-background="new -275 398.7 44.2 44.2" xml:space="preserve">
<g>
	<g>
		<g>
			<path d="M-259.5,428.1c-0.2,0-0.4-0.1-0.5-0.2c-0.3-0.3-0.3-0.8,0-1.1l13.2-13.2c0.3-0.3,0.8-0.3,1.1,0s0.3,0.8,0,1.1l-13.2,13.2
				C-259.1,428-259.3,428.1-259.5,428.1z"/>
		</g>
		<g>
			<path d="M-246.3,428.1c-0.2,0-0.4-0.1-0.5-0.2l-13.2-13.2c-0.3-0.3-0.3-0.8,0-1.1c0.3-0.3,0.8-0.3,1.1,0l13.2,13.2
				c0.3,0.3,0.3,0.8,0,1.1C-245.9,428-246.1,428.1-246.3,428.1z"/>
		</g>
		<path d="M-252.9,442.9c-12.2,0-22.1-9.9-22.1-22.1c0-12.2,9.9-22.1,22.1-22.1c12.2,0,22.1,9.9,22.1,22.1
			C-230.8,433-240.7,442.9-252.9,442.9z M-252.9,400.2c-11.4,0-20.6,9.2-20.6,20.6c0,11.4,9.2,20.6,20.6,20.6s20.6-9.2,20.6-20.6
			C-232.3,409.4-241.5,400.2-252.9,400.2z"/>
		
			<line fill="none" stroke="#FFFFFF" stroke-width="4" stroke-linecap="round" stroke-miterlimit="10" x1="-244.2" y1="412" x2="-261.5" y2="429.3"/>
		
			<line fill="none" stroke="#FFFFFF" stroke-width="4" stroke-linecap="round" stroke-miterlimit="10" x1="-261.5" y1="412" x2="-244.2" y2="429.3"/>
	</g>
</g>
</svg>
